<svg width="210" height="205" viewBox="0 0 210 205" fill="none" xmlns="http://www.w3.org/2000/svg">
<path d="M165.629 54.5154C172.328 54.5154 178.752 51.8543 183.489 47.1176C188.226 42.3809 190.887 35.9565 190.887 29.2577C190.887 22.5589 188.226 16.1345 183.489 11.3978C178.752 6.66107 172.328 4 165.629 4C158.93 4 152.506 6.66107 147.769 11.3978C143.033 16.1345 140.371 22.5589 140.371 29.2577C140.371 35.9565 143.033 42.3809 147.769 47.1176C152.506 51.8543 158.93 54.5154 165.629 54.5154Z" stroke="white" stroke-width="7.33"/>
<path d="M44.3921 63.4566L84.8196 49.4538L140.371 75.9693L84.8196 117.377L140.371 153.95L105.051 201M162.194 88.0728L175.742 95.443L206.041 66.9725M68.8871 138.093L53.884 157.855L4 185.84" stroke="white" stroke-width="7.33" stroke-linecap="round" stroke-linejoin="round"/>
</svg>
